<svg xmlns="http://www.w3.org/2000/svg" xmlns:xlink="http://www.w3.org/1999/xlink" width="400pt" height="400pt" version="1.1" viewBox="0 0 400 400"><g id="surface1"><path style="stroke:none;fill-rule:nonzero;fill:#1e4d65;fill-opacity:1" d="M 60 84 C 57.796875 84 56 85.78125 56 88 L 56 312 C 56 314.21875 57.796875 316 60 316 L 340 316 C 342.203125 316 344 314.21875 344 312 L 344 88 C 344 85.78125 342.203125 84 340 84 Z M 64 92 L 336 92 L 336 308 L 64 308 Z M 86 112 C 84.890625 112 84 112.890625 84 114 L 84 286 C 84 287.109375 84.890625 288 86 288 L 122 288 C 123.109375 288 124 287.109375 124 286 C 124 284.890625 123.109375 284 122 284 L 88 284 L 88 116 L 258 116 C 259.109375 116 260 115.109375 260 114 C 260 112.890625 259.109375 112 258 112 Z M 274 112 C 272.890625 112 272 112.890625 272 114 C 272 115.109375 272.890625 116 274 116 L 286 116 C 287.109375 116 288 115.109375 288 114 C 288 112.890625 287.109375 112 286 112 Z M 298 112 C 296.890625 112 296 112.890625 296 114 C 296 115.109375 296.890625 116 298 116 L 312 116 L 312 274 C 312 275.109375 312.890625 276 314 276 C 315.109375 276 316 275.109375 316 274 L 316 114 C 316 112.890625 315.109375 112 314 112 Z M 268 140 C 256.96875 140 248 148.96875 248 160 C 248 171.03125 256.96875 180 268 180 C 279.03125 180 288 171.03125 288 160 C 288 148.96875 279.03125 140 268 140 Z M 268 144 C 276.828125 144 284 151.171875 284 160 C 284 168.828125 276.828125 176 268 176 C 259.171875 176 252 168.828125 252 160 C 252 151.171875 259.171875 144 268 144 Z M 180 180 C 168.375 180 157.953125 187.296875 153.859375 198.015625 C 151.0625 196.703125 148.046875 196 145 196 C 133.421875 196 124 205.421875 124 217 C 124 219.4375 124.4375 221.84375 125.328125 224.1875 C 115.5625 225.484375 108 233.875 108 244 C 108 255.03125 116.96875 264 128 264 L 232 264 C 243.03125 264 252 255.03125 252 244 C 252 232.890625 242.875 223.671875 231.75 224 C 231.921875 222.96875 232 221.984375 232 221 C 232 209.421875 222.578125 200 211 200 C 209.703125 200 208.375 200.15625 206.953125 200.453125 C 203.625 188.484375 192.609375 180 180 180 Z M 180 184 C 191.40625 184 201.3125 192.109375 203.53125 203.296875 C 203.640625 203.859375 203.984375 204.328125 204.453125 204.625 C 204.9375 204.90625 205.53125 204.984375 206.078125 204.8125 C 207.921875 204.265625 209.46875 204 211 204 C 220.375 204 228 211.625 228 221 C 228 222.453125 227.765625 223.953125 227.25 225.734375 C 227.046875 226.375 227.21875 227.09375 227.671875 227.609375 C 228.109375 228.125 228.8125 228.375 229.484375 228.265625 C 230.296875 228.125 231.140625 228 232 228 C 240.828125 228 248 235.171875 248 244 C 248 252.828125 240.828125 260 232 260 L 128 260 C 119.171875 260 112 252.828125 112 244 C 112 235.171875 119.171875 228 127.921875 228 C 127.984375 228.015625 128.25 228.03125 128.328125 228.046875 C 128.34375 228.046875 128.34375 228.03125 128.359375 228.03125 C 132.171875 228.109375 135.828125 229.515625 138.671875 232.0625 C 139.0625 232.40625 139.53125 232.578125 140 232.578125 C 140.5625 232.578125 141.09375 232.359375 141.5 231.921875 C 142.234375 231.09375 142.171875 229.828125 141.34375 229.078125 C 138.09375 226.1875 134.015625 224.515625 129.703125 224.140625 C 128.59375 221.828125 128 219.4375 128 217 C 128 207.625 135.625 200 145 200 C 148.109375 200 151.21875 200.90625 153.9375 202.609375 C 154.484375 202.9375 155.140625 203 155.734375 202.765625 C 156.3125 202.546875 156.75 202.046875 156.9375 201.453125 C 159.84375 191.171875 169.328125 184 180 184 Z M 145.109375 236 C 144.84375 235.984375 144.578125 236.015625 144.3125 236.109375 C 143.265625 236.484375 142.71875 237.625 143.09375 238.671875 C 143.5 239.8125 143.765625 241.015625 143.90625 242.234375 C 144.015625 243.25 144.890625 244 145.890625 244 C 145.96875 244 146.03125 244 146.109375 243.984375 C 147.203125 243.859375 148 242.875 147.875 241.765625 C 147.71875 240.25 147.375 238.765625 146.875 237.328125 C 146.59375 236.546875 145.875 236.046875 145.109375 236 Z M 130 284 C 128.890625 284 128 284.890625 128 286 C 128 287.109375 128.890625 288 130 288 L 142 288 C 143.109375 288 144 287.109375 144 286 C 144 284.890625 143.109375 284 142 284 Z M 154 284 C 152.890625 284 152 284.890625 152 286 C 152 287.109375 152.890625 288 154 288 L 302 288 C 303.109375 288 304 287.109375 304 286 C 304 284.890625 303.109375 284 302 284 Z"/></g></svg>